{"title":"n (2001) HDRip 720p x264 AAC [ TaRa ].mkv","uid":15991172,"size":1247875578,"categoryP":"video","categoryS":"hd___movies","magnet":"?xt=urn:btih:11e0dd7c65bd1c6d8afbf6aa304ce7962e516d75&amp;dn=n+%282001%29+HDRip+720p+x264+AAC+%5B+TaRa+%5D.mkv&amp;tr=udp%3A%2F%2Ftracker.leechers-paradise.org%3A6969&amp;tr=udp%3A%2F%2Fzer0day.ch%3A1337&amp;tr=udp%3A%2F%2Fopen.demonii.com%3A1337&amp;tr=udp%3A%2F%2Ftracker.coppersurfer.tk%3A6969&amp;tr=udp%3A%2F%2Fexodus.desync.com%3A6969","seeders":0,"leechers":1,"uploader":"MdTaRa","files":1,"time":1476018875,"description":"===================================================================\r\nGeneral\r\nComplete name               : Tum Bin (2001) HDRip 720p x264 AAC [ TaRa ].mkv\r\nFormat                      : Matroska\r\nFormat version              : Version 4 / Version 2\r\nFile size                   : 1.16 GiB\r\nDuration                    : 2h 32mn\r\nOverall bit rate            : 1 094 Kbps\r\n===================================================================\r\nVideo\r\nID                          : 1\r\nFormat                      : AVC\r\nFormat/Info                 : Advanced Video Codec\r\nFormat profile              :   \r\nFormat settings, CABAC      : Yes\r\nFormat settings, ReFrames   : 4 frames\r\nCodec ID                    : V_MPEG4/ISO/AVC\r\nDuration                    : 2h 32mn\r\nBit rate                    : 1 000 Kbps\r\nWidth                       : 1 280 pixels\r\nHeight                      : 512 pixels\r\nDisplay aspect ratio        : 2.500\r\nFrame rate mode             : Constant\r\nFrame rate                  : 23.976 (24000/1001) fps\r\nColor space                 : YUV\r\nChroma subsampling          : 4:2:0\r\nBit depth                   : 8 bits\r\nScan type                   : Progressive\r\nBits/(Pixel*Frame)          : 0.064\r\nStream size                 : 1.06 GiB (91%)\r\nTitle                       : .....::::: TaRa :::::.....\r\nLanguage                    : Hindi\r\nDefault                     : Yes\r\nForced                      : No\r\nColor range                 : Limited\r\nColor primaries             : BT.709\r\nTransfer characteristics    : BT.709\r\nMatrix coefficients         : BT.709\r\n===================================================================\r\nAudio\r\nID                          : 2\r\nFormat                      : AAC\r\nFormat/Info                 : Advanced Audio Codec\r\nFormat profile              : LC\r\nCodec ID                    : A_AAC\r\nDuration                    : 2h 32mn\r\nBit rate                    : 96.0 Kbps\r\nChannel(s)                  : 2 channels\r\nChannel positions           : Front: L R\r\nSampling rate               : 48.0 KHz\r\nFrame rate                  : 46.875 fps (1024 spf)\r\nCompression mode            : Lossy\r\nDelay relative to video     : -74ms\r\nStream size                 : 104 MiB (9%)\r\nTitle                       : .....::::: TaRa :::::.....\r\nLanguage                    : Hindi\r\nDefault                     : Yes\r\nForced                      : No\r\n=================================================================== \nhttps://extraimago.com/image/wZCZ \nhttps://extraimago.com/image/wZCe \nhttps://extraimago.com/image/wZC4 \nhttps://extraimago.com/image/wZCX \nhttps://extraimago.com/image/wZCH \nhttps://extraimago.com/image/wZCo \nhttps://extraimago.com/image/wZCt \nhttps://extraimago.com/image/wZCx \nhttps://extraimago.com/image/wZC6 \nhttps://extraimago.com/image/wZCV \nhttps://extraimago.com/image/wZCu \nhttps://extraimago.com/image/wZCv \nhttps://extraimago.com/image/wZCA \nhttps://extraimago.com/image/wZCW \nhttps://extraimago.com/image/wZCf \nhttps://extraimago.com/image/wZY8 \nhttps://extraimago.com/image/wZYa","torrent":{"xt":"urn:btih:11e0dd7c65bd1c6d8afbf6aa304ce7962e516d75","amp;dn":"n+%282001%29+HDRip+720p+x264+AAC+%5B+TaRa+%5D.mkv","amp;tr":["udp%3A%2F%2Ftracker.leechers-paradise.org%3A6969","udp%3A%2F%2Fzer0day.ch%3A1337","udp%3A%2F%2Fopen.demonii.com%3A1337","udp%3A%2F%2Ftracker.coppersurfer.tk%3A6969","udp%3A%2F%2Fexodus.desync.com%3A6969"],"infoHash":"11e0dd7c65bd1c6d8afbf6aa304ce7962e516d75","infoHashBuffer":{"type":"Buffer","data":[17,224,221,124,101,189,28,109,138,251,246,170,48,76,231,150,46,81,109,117]},"announce":[],"urlList":[]}}